{
    "asset": {
        "version": "2.0",
        "generator": "Open Asset Import Library (assimp v5.4.0)"
    },
    "extensionsUsed": [
        "KHR_materials_volume",
        "FB_ngon_encoding"
    ],
    "accessors": [
        {
            "bufferView": 0,
            "byteOffset": 0,
            "componentType": 5126,
            "count": 10282,
            "type": "VEC3",
            "max": [
                0.8171770572662354,
                0.29670706391334534,
                0.6206890940666199
            ],
            "min": [
                -0.9906331300735474,
                0.000007830461981939152,
                -0.6206892132759094
            ]
        },
        {
            "bufferView": 1,
            "byteOffset": 0,
            "componentType": 5126,
            "count": 10282,
            "type": "VEC3",
            "max": [
                1.0,
                1.0,
                0.9999391436576843
            ],
            "min": [
                -1.0,
                -1.0,
                -0.9999391436576843
            ]
        },
        {
            "bufferView": 2,
            "byteOffset": 0,
            "componentType": 5125,
            "count": 61680,
            "type": "SCALAR",
            "max": [
                10281
            ],
            "min": [
                0
            ]
        },
        {
            "bufferView": 3,
            "byteOffset": 0,
            "componentType": 5126,
            "count": 6914,
            "type": "VEC3",
            "max": [
                0.993538498878479,
                0.21664711833000183,
                0.993538498878479
            ],
            "min": [
                -0.993538498878479,
                0.00002660446807567496,
                -0.993538498878479
            ]
        },
        {
            "bufferView": 4,
            "byteOffset": 0,
            "componentType": 5126,
            "count": 6914,
            "type": "VEC3",
            "max": [
                1.0,
                1.0,
                1.0
            ],
            "min": [
                -1.0,
                -1.0,
                -1.0
            ]
        },
        {
            "bufferView": 5,
            "byteOffset": 0,
            "componentType": 5125,
            "count": 41472,
            "type": "SCALAR",
            "max": [
                6913
            ],
            "min": [
                0
            ]
        }
    ],
    "buffers": [
        {
            "byteLength": 825312,
            "uri": "pin_0.bin"
        }
    ],
    "bufferViews": [
        {
            "buffer": 0,
            "byteOffset": 0,
            "byteLength": 123384,
            "target": 34962
        },
        {
            "buffer": 0,
            "byteOffset": 123384,
            "byteLength": 123384,
            "target": 34962
        },
        {
            "buffer": 0,
            "byteOffset": 246768,
            "byteLength": 246720,
            "target": 34963
        },
        {
            "buffer": 0,
            "byteOffset": 493488,
            "byteLength": 82968,
            "target": 34962
        },
        {
            "buffer": 0,
            "byteOffset": 576456,
            "byteLength": 82968,
            "target": 34962
        },
        {
            "buffer": 0,
            "byteOffset": 659424,
            "byteLength": 165888,
            "target": 34963
        }
    ],
    "materials": [
        {
            "name": "Material.067",
            "pbrMetallicRoughness": {
                "baseColorFactor": [
                    0.6146158576011658,
                    0.6146158576011658,
                    0.6146158576011658,
                    1.0
                ],
                "metallicFactor": 0.0,
                "roughnessFactor": 0.5
            },
            "doubleSided": true
        },
        {
            "name": "Material.026",
            "pbrMetallicRoughness": {
                "baseColorFactor": [
                    0.614616334438324,
                    0.0,
                    0.006098703946918249,
                    1.0
                ],
                "metallicFactor": 0.0,
                "roughnessFactor": 0.8116071224212646
            },
            "doubleSided": true
        }
    ],
    "meshes": [
        {
            "name": "meshes[0]",
            "primitives": [
                {
                    "mode": 4,
                    "material": 1,
                    "indices": 2,
                    "attributes": {
                        "POSITION": 0,
                        "NORMAL": 1
                    }
                }
            ]
        },
        {
            "name": "meshes[1]",
            "primitives": [
                {
                    "mode": 4,
                    "material": 0,
                    "indices": 5,
                    "attributes": {
                        "POSITION": 3,
                        "NORMAL": 4
                    }
                }
            ]
        }
    ],
    "nodes": [
        {
            "name": "pin",
            "children": [
                1
            ]
        },
        {
            "name": "Plane032",
            "matrix": [
                0.49263712763786316,
                -5.650223255157471,
                0.5870815515518188,
                0.0,
                5.208849906921387,
                0.684432864189148,
                2.2162601947784424,
                0.0,
                -1.898394227027893,
                0.2888103127479553,
                4.37258243560791,
                0.0,
                -2.683046340942383,
                4.7225494384765625,
                -194.77015686035156,
                1.0
            ],
            "children": [
                2
            ],
            "mesh": 0,
            "extras": {
                "name": "Plane.032"
            }
        },
        {
            "name": "Circle011",
            "matrix": [
                0.4136970043182373,
                0.0,
                0.0,
                0.0,
                0.0,
                0.41369694471359253,
                0.0,
                0.0,
                0.0,
                0.0,
                0.4939405024051666,
                0.0,
                -0.497942179441452,
                0.23892222344875336,
                0.0000033676624298095703,
                1.0
            ],
            "mesh": 1,
            "extras": {
                "name": "Circle.011"
            }
        }
    ],
    "scenes": [
        {
            "nodes": [
                0
            ]
        }
    ],
    "scene": 0
}